<?xml version="1.0" standalone="no"?>
<!DOCTYPE svg PUBLIC "-//W3C//DTD SVG 20010904//EN"
 "http://www.w3.org/TR/2001/REC-SVG-20010904/DTD/svg10.dtd">
<svg version="1.0" xmlns="http://www.w3.org/2000/svg"
 width="460.000000pt" height="460.000000pt" viewBox="0 0 460.000000 460.000000"
 preserveAspectRatio="xMidYMid meet">
<metadata>
Created by potrace 1.14, written by Peter Selinger 2001-2017
</metadata>
<g transform="translate(0.000000,460.000000) scale(0.100000,-0.100000)"
fill="#000000" stroke="none">
<path d="M3182 4563 c-15 -54 -53 -156 -63 -169 -5 -6 -25 -56 -44 -110 -20
-55 -47 -132 -62 -173 -27 -76 -24 -90 18 -91 17 0 28 25 109 250 27 74 65
178 84 230 20 52 36 96 36 98 0 1 -15 2 -34 2 -30 0 -35 -4 -44 -37z"/>
<path d="M1120 4545 c-8 -19 -17 -35 -22 -35 -4 0 -8 -6 -8 -14 0 -8 -6 -17
-12 -19 -7 -3 -1 -6 14 -6 24 -1 27 4 37 50 14 62 10 72 -9 24z"/>
<path d="M4300 4442 c0 -7 -5 -10 -10 -7 -7 4 -10 -11 -9 -43 1 -27 -1 -53 -4
-58 -3 -5 -8 -28 -12 -51 -3 -23 -17 -73 -30 -111 -13 -38 -34 -107 -45 -153
-12 -46 -25 -93 -30 -104 -5 -11 -18 -52 -28 -92 l-20 -71 22 -6 c43 -12 54
-7 61 27 3 17 17 68 30 112 27 88 90 319 110 403 8 29 23 69 35 89 23 40 18
52 -25 55 -17 1 -33 7 -37 13 -5 6 -8 5 -8 -3z"/>
<path d="M3572 4061 c-42 -8 -42 -18 2 -42 26 -13 36 -15 36 -7 0 7 3 23 6 36
4 12 2 21 -2 21 -5 -1 -24 -4 -42 -8z"/>
<path d="M3436 3702 c-3 -4 0 -28 5 -52 12 -55 5 -104 -31 -200 -16 -41 -39
-111 -51 -155 -13 -44 -27 -81 -31 -83 -4 -2 -8 -12 -8 -21 0 -10 -3 -21 -7
-25 -5 -4 -8 -15 -9 -24 -1 -10 -2 -27 -3 -40 0 -13 -4 -21 -8 -19 -5 3 -9 -9
-10 -25 -1 -17 -8 -36 -14 -44 -6 -8 -8 -14 -4 -14 4 0 2 -7 -5 -15 -6 -8 -16
-29 -20 -47 -4 -18 -11 -40 -14 -49 -4 -9 4 -29 22 -51 l28 -36 57 181 c56
179 104 348 125 438 18 74 49 150 86 208 27 42 32 56 23 66 -7 7 -14 9 -18 4
-3 -5 -19 -5 -37 0 -20 6 -32 6 -32 0 0 -5 -10 -9 -22 -8 -22 0 -22 1 -3 9 16
7 17 9 3 9 -9 1 -19 -3 -22 -7z"/>
<path d="M650 3664 c0 -22 -3 -26 -10 -14 -9 14 -14 7 -11 -13 1 -5 -9 -23
-21 -40 -22 -30 -28 -41 -60 -100 -7 -13 -27 -41 -43 -62 -17 -22 -44 -60 -60
-85 -17 -25 -34 -49 -38 -55 -31 -37 -171 -244 -178 -264 -5 -13 -21 -38 -36
-55 -41 -48 -63 -106 -63 -164 0 -36 -6 -63 -18 -80 -11 -15 -40 -66 -65 -113
l-47 -86 0 -135 0 -134 168 -48 c92 -26 199 -56 237 -66 39 -11 126 -34 195
-51 69 -18 217 -56 330 -87 113 -30 277 -74 365 -97 149 -39 502 -138 862
-241 83 -23 180 -48 215 -55 35 -7 113 -27 173 -44 61 -18 133 -38 160 -45 86
-22 635 -180 745 -215 58 -18 159 -48 225 -65 66 -17 156 -43 200 -56 44 -14
125 -34 180 -45 55 -10 102 -24 103 -29 2 -6 8 -8 13 -4 13 8 50 -6 44 -16 -3
-4 4 -6 15 -3 11 3 32 1 48 -5 15 -5 54 -17 87 -26 83 -22 205 -57 221 -63 12
-4 14 115 14 756 l0 761 -25 0 c-28 0 -29 3 -15 30 5 10 12 56 16 102 3 45 10
96 15 112 5 16 9 115 8 220 -1 197 -3 202 -33 71 -32 -136 -85 -335 -95 -353
-6 -11 -9 -21 -6 -23 2 -3 -5 -15 -15 -29 l-18 -24 -8 60 c-4 32 -8 82 -10
109 -4 91 -17 203 -24 215 -5 8 -14 8 -36 -1 -35 -13 -190 -5 -309 17 -100 19
-267 65 -375 105 -84 30 -99 29 -100 -8 0 -13 -58 -114 -71 -123 -3 -3 -19
-32 -34 -65 -53 -118 -107 -225 -117 -231 -13 -8 -36 14 -58 55 -11 20 -20 32
-20 26 -1 -5 -3 -17 -5 -25 -4 -19 -62 -176 -79 -215 -8 -16 -21 -52 -31 -80
-9 -27 -20 -59 -25 -70 -4 -11 -22 -60 -40 -110 -71 -200 -83 -211 -220 -208
-120 3 -499 79 -579 116 -13 7 -41 12 -62 12 -21 0 -39 3 -39 6 0 4 -11 10
-25 13 -13 3 -37 11 -52 17 -15 7 -35 13 -43 14 -27 5 -85 30 -92 40 -5 7 -14
6 -28 -2 -26 -17 -33 -16 -26 2 3 9 0 15 -10 15 -8 0 -12 -4 -9 -10 4 -6 -7
-10 -26 -10 -31 0 -32 1 -13 15 19 14 18 14 -3 15 -24 0 -30 -19 -13 -36 7 -7
4 -18 -10 -34 -11 -13 -20 -27 -20 -32 0 -6 -9 -21 -20 -35 -26 -34 -25 -53 3
-53 20 0 19 -2 -8 -16 -35 -18 -45 -31 -45 -61 0 -12 -6 -28 -12 -35 -7 -8
-19 -23 -26 -33 -7 -11 -21 -33 -31 -49 -11 -16 -17 -35 -14 -42 3 -8 0 -14
-6 -14 -6 0 -11 5 -11 11 0 6 -7 18 -16 26 -31 32 -10 122 106 438 40 107 224
505 300 646 11 20 20 43 20 51 0 8 11 27 25 42 16 17 19 26 10 26 -15 0 -30
34 -21 48 3 5 -6 14 -21 21 -14 6 -23 15 -19 18 7 8 -36 38 -84 59 -32 14
-198 59 -260 71 -51 9 -205 45 -220 51 -26 10 -142 38 -300 71 -52 12 -123 27
-158 35 -63 14 -63 14 -87 -12 -29 -31 -67 -31 -195 -1 -102 24 -97 16 -79
130 6 39 8 73 5 76 -3 4 -6 -7 -6 -23z m-15 -466 c16 -7 25 -19 25 -35 0 -29
-25 -31 -40 -3 -14 27 -60 26 -89 -1 -20 -19 -21 -23 -8 -42 9 -14 28 -24 53
-27 46 -6 31 -22 -20 -22 -52 0 -76 17 -76 55 0 36 13 58 45 75 26 15 78 15
110 0z m135 -88 c17 -17 19 -24 9 -43 -18 -32 -40 -46 -75 -47 -55 0 -70 37
-33 84 25 32 70 35 99 6z m157 -44 c10 -9 9 -19 -6 -46 -19 -37 -51 -53 -51
-26 0 8 5 18 10 21 12 7 14 45 3 45 -14 -1 -43 -27 -43 -38 0 -14 -35 -34 -43
-25 -7 6 18 58 37 78 13 15 74 9 93 -9z m113 -5 c0 -5 3 -16 6 -25 3 -9 1 -16
-5 -16 -6 0 -24 -14 -40 -32 -33 -37 -62 -32 -37 8 9 13 16 30 16 37 0 8 10
19 23 25 28 14 37 14 37 3z m96 -41 c25 0 15 -17 -14 -23 -16 -3 -34 -17 -42
-31 -14 -28 -40 -35 -40 -12 0 23 51 78 67 72 8 -4 21 -6 29 -6z m248 -9 c3
-5 -12 -36 -34 -70 -28 -43 -44 -59 -55 -55 -19 8 -19 10 7 53 39 66 70 93 82
72z m-123 -11 c26 -14 24 -36 -6 -65 -28 -29 -85 -34 -105 -10 -18 21 1 68 31
76 36 10 58 10 80 -1z m2633 -648 c2 -4 8 -41 12 -81 6 -61 4 -73 -7 -69 -8 3
-16 13 -17 24 -4 18 -28 44 -43 44 -4 0 -15 -7 -23 -16 -9 -8 -23 -14 -31 -12
-12 2 -6 17 27 61 38 52 69 70 82 49z m136 -50 c0 -16 -32 -117 -40 -125 -16
-18 -21 16 -10 66 7 29 15 55 17 60 6 10 33 9 33 -1z m104 -49 c4 -14 3 -29
-2 -32 -6 -3 -14 -22 -19 -41 -14 -55 -38 -45 -38 15 0 72 45 116 59 58z
m-2280 -38 c3 -8 1 -15 -4 -15 -6 0 -10 7 -10 15 0 8 2 15 4 15 2 0 6 -7 10
-15z"/>
<path d="M697 3093 c-11 -10 -8 -41 4 -48 14 -10 49 24 42 41 -5 14 -35 19
-46 7z"/>
<path d="M1192 2978 c-18 -18 -15 -38 6 -38 21 0 42 18 42 37 0 16 -32 17 -48
1z"/>
<path d="M3856 2313 c-12 -12 -6 -33 9 -33 8 0 15 6 15 14 0 17 -14 28 -24 19z"/>
<path d="M4107 3469 c7 -7 15 -10 18 -7 3 3 -2 9 -12 12 -14 6 -15 5 -6 -5z"/>
<path d="M4008 3393 c7 -3 16 -2 19 1 4 3 -2 6 -13 5 -11 0 -14 -3 -6 -6z"/>
<path d="M4058 3383 c7 -3 16 -2 19 1 4 3 -2 6 -13 5 -11 0 -14 -3 -6 -6z"/>
<path d="M4105 3370 c3 -5 8 -10 11 -10 2 0 4 5 4 10 0 6 -5 10 -11 10 -5 0
-7 -4 -4 -10z"/>
<path d="M3030 3351 c0 -6 -7 -11 -15 -11 -8 0 -15 -3 -15 -6 0 -3 7 -12 15
-20 8 -9 16 -25 16 -37 1 -15 4 -10 10 13 7 30 7 28 5 -18 -2 -35 1 -52 8 -49
21 7 19 85 -3 114 -12 14 -21 21 -21 14z"/>
<path d="M2393 2658 c2 -29 27 -55 27 -28 0 6 -4 9 -9 5 -5 -3 -12 8 -15 25
l-6 30 3 -32z"/>
<path d="M2541 2661 c-7 -5 -12 -14 -10 -20 2 -6 10 -2 17 9 14 22 13 23 -7
11z"/>
<path d="M2478 2631 c5 -23 6 -24 13 -6 11 29 11 32 -4 32 -9 0 -12 -9 -9 -26z"/>
<path d="M2564 2633 c-11 -25 -13 -53 -4 -53 8 0 23 61 16 67 -2 2 -7 -4 -12
-14z"/>
<path d="M2506 2613 c-6 -14 -5 -15 5 -6 7 7 10 15 7 18 -3 3 -9 -2 -12 -12z"/>
<path d="M2617 2623 c-4 -3 -7 -17 -7 -30 0 -14 -4 -21 -10 -18 -5 3 -10 1
-10 -4 0 -17 20 -13 25 4 16 51 17 51 28 28 5 -13 14 -23 19 -23 4 0 8 -7 8
-15 0 -8 5 -15 10 -15 16 0 12 13 -18 48 -29 33 -34 36 -45 25z"/>
<path d="M2711 2586 c-6 -16 -10 -34 -8 -40 3 -6 10 2 16 18 6 16 10 34 8 40
-3 6 -10 -2 -16 -18z"/>
<path d="M1630 1955 c0 -5 5 -17 10 -25 5 -8 10 -10 10 -5 0 6 -5 17 -10 25
-5 8 -10 11 -10 5z"/>
<path d="M940 1801 l-25 -7 28 -6 c19 -4 27 -1 27 8 0 8 -1 14 -2 13 -2 -1
-14 -4 -28 -8z"/>
<path d="M1000 1780 c0 -5 7 -10 16 -10 8 0 12 5 9 10 -3 6 -10 10 -16 10 -5
0 -9 -4 -9 -10z"/>
<path d="M1088 1762 c-29 -3 -40 -22 -13 -22 17 0 19 -18 5 -40 -9 -13 -11
-13 -19 0 -5 8 -8 17 -5 21 2 4 -3 9 -11 13 -8 3 -15 1 -15 -4 0 -6 -9 -10
-20 -10 -13 0 -18 5 -14 15 5 11 -1 15 -25 15 -17 0 -31 -4 -31 -10 0 -5 6
-10 13 -10 8 0 11 -16 8 -57 l-3 -58 -19 24 c-17 21 -20 21 -34 7 -9 -8 -16
-18 -15 -21 1 -17 -1 -19 -9 -6 -7 10 -13 11 -31 1 -12 -6 -24 -9 -28 -6 -3 3
0 6 6 6 7 0 12 5 12 10 0 6 -7 10 -15 10 -8 0 -15 -6 -15 -12 0 -9 -3 -9 -9 1
-7 10 -22 12 -59 8 -37 -4 -54 -2 -62 8 -6 8 -24 14 -38 13 -15 0 -61 9 -102
20 -90 25 -190 42 -190 32 0 -4 7 -13 15 -20 12 -10 13 -16 3 -27 -10 -12 -9
-17 5 -24 9 -5 24 -25 33 -44 10 -22 23 -35 35 -35 11 0 18 -3 17 -7 -5 -14
55 -73 74 -73 10 0 18 -6 18 -13 0 -7 12 -13 28 -12 18 0 26 -5 24 -14 -2 -7
4 -21 11 -30 8 -9 18 -27 22 -41 4 -14 13 -32 19 -40 6 -8 20 -30 30 -49 15
-28 16 -35 5 -42 -10 -6 -8 -9 9 -9 12 0 22 -5 22 -11 0 -8 5 -8 15 1 16 13
20 7 27 -35 3 -16 11 -19 61 -18 31 0 57 -3 57 -7 0 -5 22 -13 49 -19 28 -6
64 -19 82 -30 18 -11 37 -18 41 -15 14 9 58 -5 55 -17 -1 -6 7 -13 18 -15 11
-1 25 -10 31 -19 9 -12 24 -16 51 -13 34 2 38 1 35 -20 -3 -17 2 -22 20 -23
22 0 22 -1 3 -9 -16 -7 -12 -9 23 -15 26 -5 48 -16 57 -29 8 -11 15 -15 15 -8
0 15 11 15 47 0 15 -6 30 -12 33 -13 3 0 15 -6 28 -14 17 -9 27 -10 37 -1 9 7
15 8 20 0 3 -5 15 -10 26 -10 10 0 19 -6 19 -14 0 -8 10 -14 23 -15 59 -2 84
-7 101 -23 11 -10 25 -18 32 -18 6 0 15 -10 18 -22 6 -21 7 -21 17 -5 13 23
25 22 83 -8 27 -14 57 -25 67 -25 10 0 21 -4 24 -10 3 -5 17 -10 31 -10 20 0
24 -4 19 -19 -5 -16 2 -20 62 -27 37 -4 59 -9 48 -12 -11 -2 -24 -7 -28 -12
-13 -11 46 -9 60 2 14 11 90 -18 79 -29 -7 -7 13 -33 25 -33 5 0 10 10 10 23
1 15 3 17 6 6 2 -10 13 -19 23 -22 13 -3 17 -11 14 -25 -7 -24 19 -36 46 -22
25 14 79 1 93 -21 9 -14 24 -19 57 -20 25 0 39 -3 33 -6 -15 -6 -17 -53 -3
-53 6 0 13 7 16 15 4 8 10 15 14 15 11 0 7 -54 -5 -62 -6 -5 -2 -8 8 -8 10 0
17 8 17 20 0 24 1 24 45 6 18 -8 36 -12 39 -9 7 7 73 -25 95 -45 7 -7 23 -12
35 -10 25 3 49 -10 41 -23 -4 -5 9 -9 27 -9 19 0 43 -7 55 -15 14 -10 32 -13
47 -9 19 4 27 1 36 -16 8 -15 19 -21 39 -18 15 1 40 -5 54 -15 14 -9 32 -17
39 -17 7 0 28 -9 46 -20 18 -11 50 -20 70 -20 20 0 49 0 65 0 15 0 30 -6 33
-15 4 -8 12 -15 20 -15 8 0 14 -4 14 -10 0 -5 -5 -10 -12 -10 -9 0 -9 -3 0
-12 8 -8 15 -8 26 1 10 8 16 9 21 1 4 -6 22 -8 46 -4 34 6 38 4 33 -10 -5 -13
1 -16 29 -16 39 0 58 -15 30 -24 -10 -3 6 -4 35 -2 40 2 52 0 52 -12 0 -10 7
-13 22 -9 13 4 32 -2 50 -15 16 -11 38 -18 48 -15 17 4 20 0 20 -28 l0 -34
420 -1 420 -1 0 409 0 409 -42 10 c-49 13 -107 30 -228 68 -47 15 -119 35
-160 46 -82 22 -82 22 -155 39 -27 6 -57 14 -65 18 -8 3 -19 7 -25 7 -11 2
-37 11 -70 25 -22 10 -219 61 -250 66 -11 1 -51 12 -90 24 -38 12 -115 32
-170 45 -134 31 -279 69 -400 106 -55 17 -118 35 -140 40 -22 6 -60 16 -85 24
-25 7 -63 18 -85 24 -22 6 -87 24 -145 41 -163 48 -202 58 -240 66 -19 3 -46
11 -60 17 -14 5 -32 11 -40 12 -8 1 -55 15 -105 30 -49 15 -108 31 -130 36
-22 5 -47 12 -55 16 -8 3 -24 8 -35 10 -123 23 -222 46 -237 54 -10 5 -22 8
-27 5 -4 -3 -27 3 -49 14 -23 11 -50 20 -61 20 -11 0 -45 7 -76 15 -30 8 -80
22 -110 30 -31 8 -67 15 -80 15 -13 0 -27 5 -30 10 -10 16 -25 12 -26 -7 -1
-15 -2 -15 -7 2 -5 15 -14 19 -34 17z m-311 -138 c-3 -3 -12 -4 -19 -1 -8 3
-5 6 6 6 11 1 17 -2 13 -5z m23 -416 c0 -18 -2 -20 -9 -8 -6 8 -7 18 -5 22 9
14 14 9 14 -14z"/>
<path d="M888 1723 c7 -3 16 -2 19 1 4 3 -2 6 -13 5 -11 0 -14 -3 -6 -6z"/>
<path d="M2215 590 c3 -5 10 -10 16 -10 5 0 9 5 9 10 0 6 -7 10 -16 10 -8 0
-12 -4 -9 -10z"/>
<path d="M2791 344 c0 -11 3 -14 6 -6 3 7 2 16 -1 19 -3 4 -6 -2 -5 -13z"/>
<path d="M3040 270 c0 -5 7 -7 15 -4 8 4 15 8 15 10 0 2 -7 4 -15 4 -8 0 -15
-4 -15 -10z"/>
</g>
</svg>
